<svg xmlns="http://www.w3.org/2000/svg" viewBox="0 0 1920 1080" preserveAspectRatio="xMidYMid slice">
  <defs>
    <radialGradient id="glow" cx="50%" cy="45%" r="60%">
      <stop offset="0%" stop-color="#2a2a2a" stop-opacity="0.9"></stop>
      <stop offset="45%" stop-color="#0e0e0e" stop-opacity="1"></stop>
      <stop offset="100%" stop-color="#000" stop-opacity="1"></stop>
    </radialGradient>
    <linearGradient id="floor" x1="0" y1="0" x2="0" y2="1">
      <stop offset="0%" stop-color="#000"></stop>
      <stop offset="100%" stop-color="#0a0a0a"></stop>
    </linearGradient>
    <linearGradient id="body" x1="0" y1="0" x2="0" y2="1">
      <stop offset="0%" stop-color="#1a1a1a"></stop>
      <stop offset="50%" stop-color="#050505"></stop>
      <stop offset="100%" stop-color="#0f0f0f"></stop>
    </linearGradient>
    <linearGradient id="glass" x1="0" y1="0" x2="0" y2="1">
      <stop offset="0%" stop-color="#080808"></stop>
      <stop offset="100%" stop-color="#181818"></stop>
    </linearGradient>
    <linearGradient id="highlight" x1="0" y1="0" x2="1" y2="0">
      <stop offset="0%" stop-color="#fff" stop-opacity="0"></stop>
      <stop offset="50%" stop-color="#fff" stop-opacity="0.35"></stop>
      <stop offset="100%" stop-color="#fff" stop-opacity="0"></stop>
    </linearGradient>
    <radialGradient id="headlight" cx="50%" cy="50%" r="50%">
      <stop offset="0%" stop-color="#fff" stop-opacity="0.9"></stop>
      <stop offset="40%" stop-color="#eee" stop-opacity="0.3"></stop>
      <stop offset="100%" stop-color="#000" stop-opacity="0"></stop>
    </radialGradient>
  </defs>

  
  <rect width="1920" height="1080" fill="url(#glow)"></rect>

  
  <rect y="720" width="1920" height="360" fill="url(#floor)"></rect>

  
  <ellipse cx="960" cy="780" rx="900" ry="40" fill="#1a1a1a" opacity="0.6"></ellipse>

  
  <g transform="translate(420 360)">
    
    <ellipse cx="540" cy="420" rx="560" ry="28" fill="#000" opacity="0.8"></ellipse>

    
    <path d="M 40 360 &#xA;             Q 60 280 140 260 &#xA;             L 260 220 &#xA;             Q 340 180 480 170 &#xA;             L 700 170 &#xA;             Q 840 180 900 210 &#xA;             L 990 260 &#xA;             Q 1050 280 1060 340 &#xA;             L 1060 400 &#xA;             Q 1060 420 1040 420 &#xA;             L 60 420 &#xA;             Q 40 420 40 400 &#xA;             Z" fill="url(#body)"></path>

    
    <path d="M 280 220 L 460 180 L 720 180 L 860 220 L 820 240 L 480 220 Z" fill="#1f1f1f" opacity="0.9"></path>

    
    <path d="M 290 230 L 470 195 L 710 195 L 830 230 L 810 275 L 330 275 Z" fill="url(#glass)" opacity="0.95"></path>
    <path d="M 290 230 L 470 195 L 710 195 L 830 230" stroke="#2a2a2a" stroke-width="1" fill="none"></path>

    
    <path d="M 320 285 L 820 285 L 800 340 L 340 340 Z" fill="url(#glass)" opacity="0.85"></path>

    
    <path d="M 60 360 L 1050 360" stroke="url(#highlight)" stroke-width="1" opacity="0.5"></path>
    <path d="M 120 300 Q 550 310 990 300" stroke="#2a2a2a" stroke-width="1" fill="none" opacity="0.6"></path>

    
    <g>
      <circle cx="230" cy="420" r="62" fill="#050505"></circle>
      <circle cx="230" cy="420" r="48" fill="#0d0d0d" stroke="#222" stroke-width="1"></circle>
      <circle cx="230" cy="420" r="20" fill="#1a1a1a"></circle>
    </g>
    <g>
      <circle cx="880" cy="420" r="62" fill="#050505"></circle>
      <circle cx="880" cy="420" r="48" fill="#0d0d0d" stroke="#222" stroke-width="1"></circle>
      <circle cx="880" cy="420" r="20" fill="#1a1a1a"></circle>
    </g>

    
    <ellipse cx="80" cy="340" rx="70" ry="18" fill="url(#headlight)" opacity="0.5"></ellipse>
    <rect x="55" y="335" width="60" height="8" rx="2" fill="#e8e8e8" opacity="0.6"></rect>

    
    <line x1="540" y1="210" x2="540" y2="410" stroke="#000" stroke-width="1" opacity="0.5"></line>
  </g>

  
  <rect width="1920" height="1080" fill="url(#glow)" opacity="0.4"></rect>

  
  <rect width="1920" height="1080" fill="#000" opacity="0.15"></rect>
</svg>